<?xml version="1.0" encoding="UTF-8"?>
<svg width="2615px" height="1431px" viewBox="0 0 2615 1431" version="1.1" xmlns="http://www.w3.org/2000/svg" xmlns:xlink="http://www.w3.org/1999/xlink">
    <!-- Generator: Sketch 54.1 (76490) - https://sketchapp.com -->
    <title>arch-diagram</title>
    <desc>Created with Sketch.</desc>
    <g id="arch-diagram" stroke="none" stroke-width="1" fill="none" fill-rule="evenodd">
        <g id="ViewModel" transform="translate(497.000000, 66.000000)">
            <rect id="Rectangle" fill="#3A384D" x="0" y="0" width="700" height="594" rx="8"></rect>
            <text id="ViewModel---data:-Li" font-family="FiraCode-Bold, Fira Code" font-size="48" font-weight="bold" fill="#C1C1FF">
                <tspan x="38" y="75">ViewModel</tspan>
                <tspan x="297.2" y="75" font-family="FiraCode-Regular, Fira Code" font-weight="normal"></tspan>
                <tspan x="38" y="133" font-family="FiraCode-Regular, Fira Code" font-weight="normal"></tspan>
                <tspan x="38" y="191" font-family="FiraCode-Regular, Fira Code" font-weight="normal">- data: List&lt;Media&gt;</tspan>
                <tspan x="38" y="249" font-family="FiraCode-Regular, Fira Code" font-weight="normal">- responseObservable</tspan>
                <tspan x="38" y="307" font-family="FiraCode-Regular, Fira Code" font-weight="normal"></tspan>
                <tspan x="38" y="365" font-family="FiraCode-Regular, Fira Code" font-weight="normal">- requestRefreshData</tspan>
                <tspan x="38" y="423" font-family="FiraCode-Regular, Fira Code" font-weight="normal">- requestMoreData</tspan>
            </text>
        </g>
        <g id="RecyclerViewManager" transform="translate(497.000000, 770.000000)">
            <rect id="Rectangle-Copy-2" fill="#3A384D" x="0" y="0" width="985" height="594" rx="8"></rect>
            <text font-family="FiraCode-Bold, Fira Code" font-size="48" font-weight="bold" fill="#C1C1FF">
                <tspan x="38" y="75">RecyclerViewManager</tspan>
                <tspan x="585.2" y="75" font-family="FiraCode-Regular, Fira Code" font-weight="normal"></tspan>
                <tspan x="38" y="133" font-family="FiraCode-Regular, Fira Code" font-weight="normal"></tspan>
                <tspan x="38" y="191" font-family="FiraCode-Regular, Fira Code" font-weight="normal">- adapter for ViewModel’s data</tspan>
                <tspan x="38" y="249" font-family="FiraCode-Regular, Fira Code" font-weight="normal"></tspan>
                <tspan x="38" y="307" font-family="FiraCode-Regular, Fira Code" font-weight="normal">- observe responseObservable</tspan>
                <tspan x="38" y="365" font-family="FiraCode-Regular, Fira Code" font-weight="normal">  - handle notify data changes</tspan>
            </text>
        </g>
        <g id="NetworkService" transform="translate(1349.000000, 66.000000)">
            <rect id="Rectangle-Copy" fill="#3A384D" x="0" y="0" width="712" height="594" rx="8"></rect>
            <text id="NetworkService-makeR" font-family="FiraCode-Bold, Fira Code" font-size="48" font-weight="bold" fill="#C1C1FF">
                <tspan x="39" y="75">NetworkService</tspan>
                <tspan x="442.2" y="75" font-family="FiraCode-Regular, Fira Code" font-weight="normal"></tspan>
                <tspan x="39" y="133" font-family="FiraCode-Regular, Fira Code" font-weight="normal"></tspan>
                <tspan x="39" y="191" font-family="FiraCode-Regular, Fira Code" font-weight="normal">makeRequest</tspan>
                <tspan x="39" y="249" font-family="FiraCode-Regular, Fira Code" font-weight="normal">  - trending()</tspan>
                <tspan x="39" y="307" font-family="FiraCode-Regular, Fira Code" font-weight="normal">  - search(query)</tspan>
                <tspan x="39" y="365" font-family="FiraCode-Regular, Fira Code" font-weight="normal">  - offset</tspan>
                <tspan x="39" y="423" font-family="FiraCode-Regular, Fira Code" font-weight="normal"></tspan>
            </text>
        </g>
        <g id="giphy-cloud" transform="translate(2240.000000, 107.000000)">
            <g id="cloud" fill="#3A384D" fill-rule="nonzero">
                <path d="M247.2238,95.509375 C247.2238,128.471875 221.9338,155.303125 190.8552,155.303125 C179.559,155.303125 168.5438,151.703125 159.327,145.121875 C138.252,157.890625 111.1636,158.453125 89.5828,146.640625 C81.9958,152.265625 72.8352,155.303125 63.506,155.303125 C38.2722,155.303125 17.7592,133.590625 17.7592,106.928125 C17.7592,102.821875 18.265,98.828125 19.2766,95.115625 C23.2668,77.903125 35.968,64.459375 52.1536,60.071875 C59.7968,25.365625 89.077,0.559375 123.1904,0.559375 C147.9746,0.559375 171.129,14.059375 184.5046,36.053125 C186.6402,35.828125 188.832,35.659375 190.9676,35.659375 C221.99,35.659375 247.2238,62.546875 247.2238,95.509375 Z" id="Path"></path>
                <g id="Group" transform="translate(0.000000, 159.500000)">
                    <path d="M255.0356,25.109375 C242.6154,25.109375 232.2746,33.828125 229.6894,45.471875 L197.543,45.471875 L197.543,6.6970625 C195.341534,6.9254375 193.112642,7.053125 190.85565,7.053125 C189.324762,7.053125 187.819726,6.8669375 186.303,6.7611875 L186.303,51.096875 C186.303,54.190625 188.832,56.721875 191.923,56.721875 L229.6894,56.721875 C232.2746,68.365625 242.6154,77.084375 255.0356,77.084375 C269.3666,77.084375 281,65.440625 281,51.096875 C281,36.753125 269.3666,25.109375 255.0356,25.109375 Z" id="Path"></path>
                    <path d="M134.88,57.171875 C123.9772,59.703125 115.8282,69.490625 115.8282,81.190625 C115.8282,94.859375 126.8996,105.940625 140.5,105.940625 C154.1004,105.940625 165.228,94.859375 165.228,81.190625 C165.228,69.490625 157.0228,59.703125 146.12,57.171875 L146.12,3.459875 C142.442722,4.53425 138.698734,5.374625 134.88,5.9241875 L134.88,57.171875 Z" id="Path"></path>
                    <path d="M83.457,3.223625 L83.457,45.471875 L51.3106,45.471875 C48.7254,33.828125 38.3846,25.109375 25.9644,25.109375 C11.6334,25.109375 0,36.753125 0,51.096875 C0,65.440625 11.6334,77.084375 25.9644,77.084375 C38.3846,77.084375 48.7254,68.365625 51.3106,56.721875 L89.077,56.721875 C92.2242,56.721875 94.697,54.190625 94.697,51.096875 L94.697,1.68125 C93.2323156,1.137875 91.7441396,0.6524375 90.3160976,0.0246875 C88.1074376,1.257125 85.8071716,2.3050625 83.457,3.223625 Z" id="Path"></path>
                </g>
            </g>
            <text id="Giphy" font-family="FiraCode-Bold, Fira Code" font-size="48" font-weight="bold" fill="#C1C1FF">
                <tspan x="66" y="116">Giphy</tspan>
            </text>
        </g>
        <path id="Line" d="M495.992935,933.03833 C390.051729,804.714606 337,676.233367 337,547.657061 C337,420.421237 388.981688,320.598202 492.739758,248.584209 C488.652836,238.969393 491.902562,227.51606 500.95071,221.593082 C511.11657,214.938443 524.752279,217.78485 531.406918,227.95071 C538.061557,238.11657 535.21515,251.752279 525.04929,258.406918 C516.052154,264.296502 504.337134,262.744051 497.149173,255.261921 C395.648064,325.770799 345,423.103973 345,547.657061 C345,674.205828 397.315552,800.926176 502.108816,927.880517 C511.135627,922.724936 522.83354,924.565614 529.792,932.786319 C537.642,942.060285 536.487647,955.942001 527.213681,963.792 C517.939715,971.642 504.057999,970.487647 496.208,961.213681 C489.231627,952.971815 489.366941,941.090722 495.992935,933.03833 Z" fill="#64608A" fill-rule="nonzero"></path>
        <path id="Line-Copy" d="M1353.53078,297.841139 L1136.92864,452.671558 C1141.35344,462.096348 1138.56684,473.626348 1129.79351,479.897656 C1119.90891,486.963317 1106.168,484.678113 1099.10234,474.79351 C1092.03668,464.908907 1094.32189,451.168004 1104.20649,444.102344 C1112.97982,437.831036 1124.79111,438.92625 1132.27645,446.16332 L1348.87859,291.332901 L1338.41118,276.689363 L1387,269 L1363.9982,312.484676 L1353.53078,297.841139 Z" fill="#64608A" fill-rule="nonzero"></path>
        <path id="Line-Copy-3" d="M2178,244 L1857,244 L1857,262 L1813,240 L1857,218 L1857,236 L2178,236 L2178,218 L2222,240 L2178,262 L2178,244 Z" fill="#64608A" fill-rule="nonzero"></path>
        <path id="Line-Copy-7" d="M1161,236 L1327.36275,236 C1329.24378,225.759528 1338.21572,218 1349,218 C1361.15026,218 1371,227.849736 1371,240 C1371,252.150264 1361.15026,262 1349,262 C1338.21572,262 1329.24378,254.240472 1327.36275,244 L1161,244 L1161,262 L1117,240 L1161,218 L1161,236 Z" fill="#64608A" fill-rule="nonzero"></path>
        <path id="Line-Copy-6" d="M427.757276,1069.70603 C492.45954,1002.50326 525,879.782145 525,701.5 C525,509.896208 491.919741,382.420364 426.248088,319.082645 C418.247942,325.592537 406.506625,325.749455 398.288252,318.895708 C388.95701,311.11388 387.700962,297.240996 395.48279,287.909754 C403.264618,278.578512 417.137502,277.322464 426.468745,285.104292 C434.810691,292.061092 436.698936,303.885869 431.445674,312.981882 C499.312274,378.093638 533,507.596268 533,701.5 C533,882.250429 499.743746,1007.08111 432.848955,1075.94896 L444.503928,1090.23917 L396.501797,1101 L416.694415,1056.1418 L427.757276,1069.70603 Z" fill="#64608A" fill-rule="nonzero"></path>
        <path d="M238.323033,562.932865 C235.627125,566.060501 229.958894,565.640739 226.367002,565.640739 L164.659245,565.640739 C160.955797,565.640739 157.59588,563.430809 156.08054,560.070294 C142.638293,576.705434 154.535914,591.012592 126.488907,612.598474 C122.19222,615.905416 117.939328,619.178615 114.227228,624.692908 C101.585478,643.472316 70.1989741,619.902881 65.9011048,607.237534 C62.6221672,597.575216 69.0127639,591.373732 73.5153116,583.792492 C81.9465123,569.596614 84.50921,552.086863 86.7308487,536.907403 C88.4601095,525.091467 88.7209951,517.672125 94.9998221,507.583328 C100.935387,498.045939 110.691005,481.828466 117.959371,473.894254 C128.368627,462.531502 142.179124,459.902078 155.25554,452.806692 L155.25554,415.403272 C155.25554,410.228732 159.484466,406 164.659245,406 L231.284494,406 C236.459111,406 240.688199,410.228893 240.688199,415.403272 L240.688199,452.776171 C253.776061,459.88671 267.623635,462.523065 278.040629,473.894254 C285.308995,481.828466 295.064613,498.045939 301.000178,507.583328 C307.279005,517.672125 307.539891,525.091467 309.269151,536.907403 C311.49079,552.086863 314.053488,569.596614 322.484688,583.792492 C326.987236,591.373732 333.377833,597.575216 330.098895,607.237534 C327.176492,615.84948 310.689003,628.273835 301.395456,631.011154 C293.516602,633.331828 286.491067,631.701999 281.772772,624.692908 C268.696785,605.268704 255.999097,611.374598 244.605353,577.93866 C242.363456,571.359862 240.328011,566.611586 238.323033,562.932865 L238.323033,562.932865 Z M254.604632,480.80635 C254.611984,480.755534 254.619823,480.704987 254.627986,480.65471 C254.893259,479.026284 255.572633,477.714878 256.117668,476.801755 C257.019284,475.287678 259.331654,476.655935 258.430038,478.169958 C258.008801,478.875615 257.484958,479.881371 257.28872,481.086241 C257.102861,482.227093 257.215792,483.58204 258.013883,485.090512 C261.018169,490.279177 266.34115,500.461379 273.333726,500.265121 C274.170145,500.204767 275.007483,500.177014 275.838388,500.177014 C277.616103,500.177014 277.616103,502.871389 275.838388,502.871389 C269.274239,502.871389 262.26777,504.696935 259.798301,511.463425 C259.194179,513.124722 256.660054,512.20912 257.264176,510.547769 C259.033512,505.699727 262.754041,502.74152 267.57356,501.285103 C262.628784,498.335302 258.67985,492.155216 256.080258,487.174557 C253.408442,482.055408 249.555789,480.41615 245.883103,478.853629 C243.779784,477.958719 241.729227,477.086011 239.89583,475.668986 L239.89583,486.912125 C239.89583,489.447262 239.907724,490.844726 240.967573,493.499331 C242.260152,490.697344 244.719566,488.626879 247.537236,487.431169 C249.169205,486.738931 250.224946,489.212366 248.59314,489.904497 C245.299253,491.302285 243.33649,493.490278 242.72015,497.015166 C243.29654,497.984602 243.942829,498.942129 244.640584,499.854552 C246.409595,502.16778 250.179536,506.151951 253.642306,506.170435 C255.47127,506.178087 255.420184,508.854355 253.668039,508.854355 C250.804255,508.84584 247.288019,506.803612 244.925535,505.2828 C243.316488,504.246975 241.889732,503.328678 239.89583,503.106554 L239.89583,521.126259 C240.591531,521.654249 241.284961,522.214948 241.974444,522.809381 C242.58554,520.337993 243.807409,518.211916 245.809419,516.593514 C247.182602,515.480468 248.882632,517.564351 247.509395,518.67745 C245.547065,520.254091 244.395691,522.661945 244.206751,524.868368 C248.600925,529.197042 252.282206,533.42042 257.117403,537.549602 C257.256067,529.736294 265.741677,522.967756 272.788097,521.177991 C274.5104,520.741934 275.17534,523.35219 273.453253,523.788193 C267.530312,525.290577 259.549841,531.311318 259.825656,538.043804 C259.923288,540.427086 263.028829,542.797112 265.343902,542.955595 C267.114481,543.073177 266.935326,545.75699 265.164422,545.639407 C263.193172,545.504419 260.079468,543.47022 256.825964,540.818633 C246.705034,532.512308 234.77817,515.297466 219.940489,516.955745 C209.781014,517.846937 208.674834,525.885925 214.626698,533.49888 C221.466824,542.634264 232.545754,550.282407 238.256239,559.331786 C240.878861,563.487751 243.472127,569.066991 246.391863,577.607835 C257.606215,610.413242 270.242565,604.281924 283.46709,623.865068 C287.539065,629.89497 293.442437,631.104366 300.209744,629.117373 C308.762821,626.606109 324.626402,614.820377 327.291622,606.990956 C330.124376,598.66992 323.807768,592.329465 319.863754,585.709764 C311.109843,571.017018 308.490574,553.176919 306.219884,537.711049 C304.544505,526.299404 304.353943,519.061399 298.281093,509.334169 C292.453892,500.000317 282.636834,483.715681 275.488997,475.937615 C265.713025,465.299687 252.290153,462.527229 239.89583,456 L239.89583,471.968263 C241.778584,474.184548 244.312925,475.262944 246.939007,476.380301 C249.53103,477.483054 252.203008,478.620404 254.604632,480.80635 L254.604632,480.80635 Z M138.703298,480.845242 C138.484213,479.72251 137.925386,478.767568 137.49801,478.053092 C136.598037,476.545023 138.906194,475.182147 139.806166,476.690269 C140.343301,477.588208 141.046259,478.792044 141.348714,480.341979 C141.363068,480.415569 141.376451,480.489802 141.388916,480.564626 C143.75303,478.461563 146.371736,477.349513 148.913276,476.270473 C151.508401,475.16862 154.013733,474.104771 155.88712,471.941484 L155.88712,456 C143.527093,462.487283 130.165321,465.242289 120.415312,475.829528 C113.280501,483.577006 103.481332,499.797603 97.6647505,509.094749 C91.602967,518.783727 91.4127521,525.993269 89.7404262,537.360037 C87.4738744,552.765088 84.8593778,570.53503 76.1214194,585.169997 C72.1845922,591.763665 65.8794955,598.079187 68.7070868,606.3675 C72.3666589,617.095315 101.316336,639.629984 112.451758,623.175254 C116.428354,617.299067 120.868968,613.899418 125.355287,610.464664 C152.916422,589.364367 140.834514,572.244543 156.887947,555.898882 C161.557196,551.144729 165.208728,548.203845 168.533252,545.5264 C172.804102,542.086815 176.522924,539.091826 181.166703,533.164432 C189.757022,522.199801 182.580229,516.165969 172.715119,516.854734 C165.293933,517.372918 158.745955,521.340294 153.546803,526.460783 C148.629114,531.303983 144.573194,535.958944 139.044336,540.4554 C135.796761,543.09656 132.688731,545.12276 130.721073,545.257217 C128.953396,545.374337 128.774567,542.701079 130.54192,542.583959 C133.025667,541.825952 136.160139,540.208117 136.050003,537.106742 C135.820234,530.641412 128.260367,524.963342 122.447346,523.491933 C120.728398,523.057644 121.392126,520.457653 123.111291,520.891996 C130.14487,522.674723 138.615017,529.416643 138.753428,537.199225 C143.388681,533.431844 148.07223,528.927819 151.883542,524.331849 C151.35774,521.905176 150.305056,519.983215 148.343927,518.401288 C146.973193,517.292566 148.670125,515.216878 150.040805,516.325547 C151.93513,517.853529 153.40089,519.968883 154.146964,522.281066 C154.714803,521.800455 155.294783,521.334122 155.88712,520.883676 L155.88712,502.898226 C153.926369,503.130373 152.513922,504.037383 150.923079,505.059312 C148.602241,506.550151 145.05669,508.601524 142.232768,508.616714 C140.394726,508.622136 140.441943,505.943564 142.196506,505.943564 C145.586486,505.929393 149.281133,502.166092 151.207511,499.652411 C151.903994,498.743576 152.549105,497.789761 153.124445,496.824138 C152.826199,494.237887 151.782202,491.70016 147.262157,489.741485 C145.633325,489.052076 146.687142,486.588367 148.316137,487.277883 C151.128565,488.468837 154.119012,490.673239 154.873774,493.322075 C155.440263,491.906006 155.799109,490.553006 155.88712,489.37429 L155.88712,475.605486 C154.071526,476.991443 152.045157,477.851862 149.967256,478.734074 C146.301262,480.290451 142.45563,481.923262 139.788683,487.02228 C137.193828,491.983352 133.25209,498.139135 128.316325,501.077336 C133.127061,502.528026 136.840811,505.4746 138.606922,510.303577 C139.209944,511.958395 136.680437,512.870396 136.077415,511.215632 C133.612446,504.475751 126.618745,502.657384 120.066558,502.657384 C118.292082,502.657384 118.292082,499.973605 120.066558,499.973605 C120.895949,499.973605 121.731761,500.001302 122.566656,500.061365 C128.995055,500.241447 134.776831,490.793204 137.396238,485.785273 C138.28121,484.093365 139.108334,482.92093 138.703298,480.845242 Z M153,500 C153.612963,499.832889 154.271827,499.714965 155,499.660483 L155,497 C154.405548,498.022675 153.732424,499.033843 153,500 Z M176.655171,532.332081 C177.297868,531.562826 178.454368,532.553735 177.81162,533.323041 C170.497327,542.086139 157.246944,527.215742 170.962497,519.112635 C171.823357,518.607674 172.582498,519.934933 171.721588,520.439894 C160.089081,527.312399 170.863765,539.270595 176.655171,532.332081 L176.655171,532.332081 Z M158,519 C158.782133,518.499178 159.580911,518.028223 160.398429,517.587457 L160.398429,415.083806 L235.601624,415.083806 L235.601624,517.557322 C236.399436,517.985112 237.199772,518.454083 238,518.964556 L238,415.702648 C238,412.019087 234.976713,409 231.288028,409 L164.711972,409 C161.023072,409 158,412.018873 158,415.702648 C158,450.13769 158,484.561633 158,519 L158,519 Z M158,557.833598 C158.717031,560.851773 161.441675,562.998713 164.56467,562.998713 L226.50792,562.998713 C229.553025,562.998713 235.524942,563.141917 237,560.407523 C233.006999,554.079081 227.730321,550.126083 222.553109,545 L172.682665,545 C171.628398,545.884264 170.563234,546.741453 169.46247,547.627325 C166.198313,550.254222 162.612994,553.13954 158.053455,557.77859 L158,557.833598 Z M174.642331,543 L220.860371,543 C218.646031,540.693677 216.209548,537.937553 213.481959,534.433465 C206.182553,525.056106 208.49298,514.669075 220.639088,513.598964 C224.55135,513.254287 229.197501,514.066832 234,516.335138 L234,416 L162,416 L162,516.360734 C178.216868,508.664924 195.165421,518.257908 182.574221,534.433465 C179.680723,538.150758 177.150517,540.748685 174.642331,543 L174.642331,543 Z M241,499.667138 C241.729994,499.718036 242.388549,499.833939 243,500 C242.265086,499.034508 241.591459,498.022654 241,497 L241,499.667138 Z M218.18838,533.323041 C217.545632,532.553735 218.702132,531.562826 219.344829,532.332081 C225.136235,539.270595 235.910919,527.312399 224.278412,520.439894 C223.417502,519.934933 224.176643,518.607674 225.037503,519.112635 C238.753056,527.215742 225.502673,542.086139 218.18838,533.323041 Z M191.57082,549 L203.42918,549 C209.523607,549 209.523607,558 203.42918,558 L191.57082,558 C185.476393,558 185.476393,549 191.57082,549 Z M203.9779,550 L192.0221,550 C187.992633,550 187.992633,556 192.0221,556 L203.9779,556 C208.007367,556 208.007367,550 203.9779,550 Z M192.748584,413 C191.750472,413 191.750472,411 192.748584,411 L202.251416,411 C203.249528,411 203.249528,413 202.251416,413 L192.748584,413 Z" id="user-hands" stroke="#3A384D" stroke-width="3" fill-rule="nonzero"></path>
        <path id="Line-Copy-5" d="M491,447 L219.637248,447 C217.756222,457.240472 208.784279,465 198,465 C185.849736,465 176,455.150264 176,443 C176,430.849736 185.849736,421 198,421 C208.784279,421 217.756222,428.759528 219.637248,439 L491,439 L491,421 L535,443 L491,465 L491,447 Z" fill="#64608A" fill-rule="nonzero"></path>
    </g>
</svg>