<?xml version="1.0" encoding="UTF-8"?>
<svg width="143px" height="143px" viewBox="0 0 143 143" version="1.1" xmlns="http://www.w3.org/2000/svg" xmlns:xlink="http://www.w3.org/1999/xlink">
    <!-- Generator: Sketch 54.1 (76490) - https://sketchapp.com -->
    <title>Shape</title>
    <desc>Created with Sketch.</desc>
    <g id="Page-1" stroke="none" stroke-width="1" fill="none" fill-rule="evenodd">
        <path d="M71.166,0.691 C32.028,0.691 0.301,32.419 0.301,71.557 C0.301,110.695 32.028,142.422 71.166,142.422 C110.304,142.422 142.033,110.695 142.033,71.557 C142.033,32.419 110.304,0.691 71.166,0.691 Z M58.675,92.319 C58.675,97.511 56.709,101.989 52.778,105.752 C48.846,109.515 44.17,111.397 38.752,111.397 C33.145,111.397 28.368,109.497 24.416,105.696 C20.464,101.896 18.491,97.286 18.491,91.868 C18.491,86.488 20.464,81.877 24.416,78.041 C28.368,74.2 33.088,72.282 38.583,72.282 C42.57,72.282 46.305,73.41 49.787,75.669 C53.267,77.927 55.589,80.731 56.758,84.078 L48.46,84.078 C46.127,80.543 42.777,78.771 38.414,78.771 C34.802,78.771 31.743,80.042 29.242,82.582 C26.738,85.122 25.487,88.237 25.487,91.924 C25.487,95.612 26.758,98.697 29.298,101.18 C31.837,103.664 34.99,104.907 38.753,104.907 C41.16,104.907 43.354,104.297 45.327,103.073 C47.304,101.849 48.818,100.167 49.872,98.02 L34.124,98.02 L34.124,91.531 L58.676,91.531 L58.676,92.319 L58.675,92.319 Z M70.809,110.663 L63.812,110.663 L63.812,73.016 L70.809,73.016 L70.809,110.663 Z M96.885,79.506 L84.693,79.506 L84.693,88.763 L96.322,88.763 L96.322,95.254 L84.693,95.254 L84.693,110.663 L77.695,110.663 L77.695,73.016 L96.884,73.016 L96.884,79.506 L96.885,79.506 Z M72.907,10.142 C106.045,11.066 132.626,38.199 132.626,71.557 C132.626,71.708 132.616,71.858 132.612,72.01 C101.202,67.264 76.567,41.898 72.907,10.142 Z" id="Shape" fill="#6B388F" fill-rule="nonzero"></path>
    </g>
</svg>